<?xml version="1.0" encoding="iso-8859-1"?>
<!-- Generator: Adobe Illustrator 19.0.0, SVG Export Plug-In . SVG Version: 6.00 Build 0)  -->
<svg version="1.1" id="Layer_1" xmlns="http://www.w3.org/2000/svg" xmlns:xlink="http://www.w3.org/1999/xlink" x="0px" y="0px"
	 viewBox="0 0 512 512" style="enable-background:new 0 0 512 512;" xml:space="preserve">
<g>
	<g>
		<path d="M176.462,447.626C184.165,484.453,216.843,512,255.994,512s71.829-27.547,79.533-64.374H176.462z"/>
	</g>
</g>
<g>
	<g>
		<path d="M454.566,299.678c0,0.033-397.144,0.033-397.144,0.033c-10.817,13.541-18.305,29.913-21.219,47.735h439.582
			C472.871,329.625,465.382,313.253,454.566,299.678z"/>
	</g>
</g>
<g>
	<g>
		<path d="M412.03,136.479C400.157,59.674,335.835,0,255.994,0S111.832,59.674,99.959,136.479
			c-4.309,27.87-16.934,97.687-22.791,129.841H434.82C428.964,234.167,416.338,164.349,412.03,136.479z"/>
	</g>
</g>
<g>
	<g>
		<rect x="34.844" y="380.839" width="442.312" height="33.391"/>
	</g>
</g>
<g>
</g>
<g>
</g>
<g>
</g>
<g>
</g>
<g>
</g>
<g>
</g>
<g>
</g>
<g>
</g>
<g>
</g>
<g>
</g>
<g>
</g>
<g>
</g>
<g>
</g>
<g>
</g>
<g>
</g>
</svg>
